<svg xmlns="http://www.w3.org/2000/svg" xmlns:xlink="http://www.w3.org/1999/xlink" viewBox="0 0 640 172">
  <defs>
    <linearGradient id="a" x1="278.77" y1="-1459.02" x2="278.77" y2="-1077.15" gradientTransform="matrix(.43 0 0 -.43 201.84 -460.9)" gradientUnits="userSpaceOnUse">
      <stop offset="0" stop-color="#394859"/>
      <stop offset=".6" stop-color="#566b82"/>
    </linearGradient>
    <linearGradient id="b" x1="853.23" y1="-357.73" x2="853.23" y2="-704.29" gradientTransform="matrix(.43 0 0 -.43 -43.82 -145.32)" gradientUnits="userSpaceOnUse">
      <stop offset="0" stop-color="#405061"/>
      <stop offset="1" stop-color="#566b82"/>
    </linearGradient>
    <linearGradient id="c" x1="-1504.13" y1="1170.49" x2="-1504.13" y2="1054.79" gradientTransform="translate(1631.64 -1023.17)" gradientUnits="userSpaceOnUse">
      <stop offset="0" stop-color="#a5a8ab"/>
      <stop offset=".6" stop-color="#fff"/>
    </linearGradient>
    <linearGradient id="d" x1="-1404.98" y1="1170.49" x2="-1404.98" y2="1096.11" xlink:href="#c"/>
    <linearGradient id="e" x1="-1404.98" y1="1089.92" x2="-1404.98" y2="1036.21" xlink:href="#c"/>
    <linearGradient id="f" x1="-1305.82" y1="1174.14" x2="-1305.82" y2="1051.14" xlink:href="#c"/>
    <linearGradient id="g" x1="-1206.66" y1="1170.49" x2="-1206.66" y2="1096.11" xlink:href="#c"/>
    <linearGradient id="h" x1="-1206.65" y1="1089.92" x2="-1206.65" y2="1036.21" xlink:href="#c"/>
    <linearGradient id="i" x1="-1107.49" y1="1170.49" x2="-1107.49" y2="1054.79" xlink:href="#c"/>
    <linearGradient id="j" x1="-1206.66" y1="1159.75" x2="-1206.66" y2="1106.85" gradientTransform="translate(1631.64 -1023.17)" gradientUnits="userSpaceOnUse">
      <stop offset=".4" stop-color="#fff"/>
      <stop offset="1" stop-color="#a5a8ab"/>
    </linearGradient>
    <linearGradient id="k" x1="-1404.98" y1="1159.75" x2="-1404.98" y2="1106.85" xlink:href="#j"/>
    <linearGradient id="l" x1="-1206.65" y1="1079.18" x2="-1206.65" y2="1046.95" xlink:href="#j"/>
    <linearGradient id="m" x1="-1504.14" y1="1159.75" x2="-1504.14" y2="1065.54" xlink:href="#j"/>
    <linearGradient id="n" x1="-1404.98" y1="1079.18" x2="-1404.98" y2="1046.95" xlink:href="#j"/>
    <linearGradient id="o" x1="-1305.82" y1="1159.75" x2="-1305.82" y2="1065.54" xlink:href="#j"/>
    <linearGradient id="p" x1="-1107.49" y1="1159.75" x2="-1107.49" y2="1065.54" xlink:href="#j"/>
    <linearGradient id="q" x1="-1504.14" y1="1164.7" x2="-1504.14" y2="1060.57" xlink:href="#j"/>
    <linearGradient id="r" x1="-1404.98" y1="1164.7" x2="-1404.98" y2="1101.89" xlink:href="#j"/>
    <linearGradient id="s" x1="-1404.98" y1="1084.14" x2="-1404.98" y2="1042" xlink:href="#j"/>
    <linearGradient id="t" x1="-1305.82" y1="1165.8" x2="-1305.82" y2="1059.49" xlink:href="#j"/>
    <linearGradient id="u" x1="-1206.66" y1="1164.7" x2="-1206.66" y2="1101.89" xlink:href="#j"/>
    <linearGradient id="v" x1="-1206.65" y1="1084.14" x2="-1206.65" y2="1042" xlink:href="#j"/>
    <linearGradient id="w" x1="-1107.5" y1="1139.92" x2="-1107.5" y2="1085.36" xlink:href="#j"/>
    <linearGradient id="x" x1="-1107.49" y1="1164.7" x2="-1107.49" y2="1060.57" xlink:href="#j"/>
  </defs>
  <path d="M574.43,51.64A12.44,12.44,0,1,1,586.87,39.2,12.45,12.45,0,0,1,574.43,51.64Z" fill="#566b82"/>
  <path d="M320.05,138.6v19.47H101.94L50.49,20.87h65.68l11.34,30.44,11.34-30.44h55.37a37.62,37.62,0,0,1,64.89,0h60.94V40.34l74.36-27.89V18a38.12,38.12,0,0,1,4-4.67,37.59,37.59,0,0,1,53.16-.06l0,0a37.16,37.16,0,0,1,5.87,7.57h66.71a68.6,68.6,0,1,1,.34,137.2H394.42v8.41Z" fill="url(#a)"/>
  <path d="M313.84,129.63v22.22H263.45V27.08h50.39V49.31L388.2,21.42V73.82l-42,15.65,42,15.66v52.4Zm147.93,22.22V27.08h62.39a62.38,62.38,0,1,1,.32,124.77H461.77Zm62.39-50.4a12,12,0,1,0,0-24h-12v24h12Zm-124.36,50.4V68.4h12a31.3,31.3,0,1,1,26.36,0h12v83.45H399.79Zm-198.32,0V68.4h12a31.32,31.32,0,1,1,26.35,0h12v83.45H201.47Zm-95.22,0L59.45,27.08h52.4l15.66,42,15.65-42h52.39L148.77,151.85Z" fill="url(#b)"/>
  <path fill="url(#c)" d="M127.51 82.11L108.69 31.62 66 31.62 109.38 147.32 145.63 147.32 189.01 31.62 146.31 31.62 127.51 82.11z"/>
  <path fill="url(#d)" d="M206.01 72.94H247.31V147.32H206.01z"/>
  <path d="M245.66,20.9a27,27,0,0,0-8.54-5.75,26.93,26.93,0,0,0-20.91,0,26.94,26.94,0,0,0-8.53,5.75,26.86,26.86,0,1,0,38,0Z" fill="url(#e)"/>
  <path fill="url(#f)" d="M309.3 31.62L267.98 31.62 267.98 147.32 309.3 147.32 309.3 123.09 383.66 150.97 383.66 108.28 333.19 89.47 383.66 70.65 383.66 27.97 309.3 55.86 309.3 31.62z"/>
  <path fill="url(#g)" d="M404.33 72.94H445.64V147.32H404.33z"/>
  <path d="M444,20.9a26.89,26.89,0,0,0-29.45-5.75,26.8,26.8,0,0,0-14.26,14.28,26.76,26.76,0,0,0,0,20.92,26.85,26.85,0,0,0,35.18,14.29,26.85,26.85,0,0,0,14.28-35.2A26.36,26.36,0,0,0,444,20.9Z" fill="url(#h)"/>
  <path d="M577.44,67a57.84,57.84,0,0,0-53.29-35.34H466.31v115.7h57.85A57.85,57.85,0,0,0,577.44,67Zm-53.29,39H507.63V72.94h16.53a16.53,16.53,0,0,1,0,33.06Z" fill="url(#i)"/>
  <path fill="url(#j)" d="M415.07 83.68H434.9V136.57H415.07z"/>
  <path fill="url(#k)" d="M216.74 83.68H236.57V136.57H216.74z"/>
  <path d="M425,23.77A16.12,16.12,0,1,0,441.1,39.88,16.11,16.11,0,0,0,425,23.77Z" fill="url(#l)"/>
  <path fill="url(#m)" d="M101.24 42.37L81.49 42.37 116.81 136.57 138.18 136.57 173.5 42.37 153.76 42.37 127.51 112.88 101.24 42.37z"/>
  <path d="M226.66,23.77a16.12,16.12,0,1,0,16.12,16.11A16.14,16.14,0,0,0,226.66,23.77Z" fill="url(#n)"/>
  <path fill="url(#o)" d="M298.56 42.37L278.73 42.37 278.73 136.57 298.56 136.57 298.56 107.58 372.92 135.47 372.92 115.74 302.42 89.47 372.92 63.2 372.92 43.47 298.56 71.36 298.56 42.37z"/>
  <path d="M524.15,42.37H477v94.21h47.11a47.1,47.1,0,0,0,0-94.21Zm25.11,57.72a27.27,27.27,0,0,1-25.11,16.66H496.87V62.19h27.28a27.24,27.24,0,0,1,25.11,16.66,27.27,27.27,0,0,1,0,21.23Z" fill="url(#p)"/>
  <path d="M127.51,98.68,104.67,37.39H74.34l39.05,104.14h28.23l39-104.14H150.32Zm46-56.31-35.33,94.21H116.82L81.49,42.37h19.75l26.26,70.52,26.26-70.52Z" fill="url(#q)"/>
  <path d="M211.78,141.53h29.75V78.72H211.78Zm5-57.85h19.83v52.89H216.74Z" fill="url(#r)"/>
  <path d="M226.66,18.82A21,21,0,1,0,241.57,25,20.9,20.9,0,0,0,226.66,18.82Zm0,37.18a16.12,16.12,0,1,1,16.12-16.13A16.15,16.15,0,0,1,226.66,56Z" fill="url(#s)"/>
  <path d="M303.52,37.39H273.77V141.53h29.75V114.74l74.36,27.89V112.3L316.61,89.47l61.26-22.82V36.32L303.52,64.19V37.39Zm69.41,6.08V63.19l-70.5,26.27,70.5,26.27v19.73l-74.36-27.89v29H278.73V42.37h19.83v29Z" fill="url(#t)"/>
  <path d="M410.11,141.53h29.75V78.72H410.11Zm5-57.85H434.9v52.89H415.07V83.68Z" fill="url(#u)"/>
  <path d="M425,18.82A21.09,21.09,0,1,0,439.88,25,20.9,20.9,0,0,0,425,18.82ZM425,56A16.12,16.12,0,1,1,441.1,39.88,16.13,16.13,0,0,1,425,56Z" fill="url(#v)"/>
  <path d="M543.44,70.19a27.19,27.19,0,0,0-19.28-8H496.87v54.55h27.28a27.31,27.31,0,0,0,19.28-8,27.24,27.24,0,0,0,5.82-8.67,27.27,27.27,0,0,0,0-21.23A27.16,27.16,0,0,0,543.44,70.19Zm-19.28,41.59H501.84V67.15h22.32a22.31,22.31,0,0,1,0,44.63Z" fill="url(#w)"/>
  <path d="M572.13,69.21a52.07,52.07,0,0,0-48-31.82H472.08V141.53h52.07a52.09,52.09,0,0,0,48-72.32Zm-48,67.36H477V42.37h47.11a47.1,47.1,0,0,1,0,94.21Z" fill="url(#x)"/>
  <path fill="#006938" d="M115.11 139.05L127.26 139.05 139.9 139.05 177.08 39.88 164.57 39.88 152.06 39.88 115.11 139.05z"/>
  <path fill="#27a8e0" d="M139.9 139.05L127.75 139.05 115.11 139.05 77.92 39.88 90.44 39.88 102.95 39.88 139.9 139.05z"/>
  <path fill="#ea2227" d="M214.26 81.2H239.04999999999998V139.05H214.26z"/>
  <path d="M245.25,39.88a18.59,18.59,0,1,1-18.6-18.58A18.6,18.6,0,0,1,245.25,39.88Z" fill="#ecb920"/>
  <path fill="#f07423" d="M276.24 77.07L276.24 89.23 276.24 101.87 375.4 139.05 375.4 126.54 375.4 114.02 276.24 77.07z"/>
  <path fill="#2d3484" d="M276.24 101.87L276.24 89.71 276.24 77.07 375.4 39.88 375.4 52.4 375.4 64.92 276.24 101.87z"/>
  <path fill="#be212f" d="M276.24 39.88H301.03000000000003V139.05H276.24z"/>
  <path fill="#65318d" d="M412.59 81.2H437.37V139.05H412.59z"/>
  <path d="M443.59,39.88A18.6,18.6,0,1,1,425,21.29,18.6,18.6,0,0,1,443.59,39.88Z" fill="#d93e27"/>
  <path fill="#1e76ba" d="M474.56 39.88H499.36V139.05H474.56z"/>
  <path d="M524.15,139a49.58,49.58,0,0,0,0-99.17V64.67a24.79,24.79,0,0,1,0,49.59Z" fill="#ea2227"/>
  <path fill="#27a7df" d="M474.56 39.88H524.15V64.67H474.56zM474.56 114.26H524.15V139.05H474.56z"/>
  <path d="M574.43,46.64a7.44,7.44,0,1,1,7.44-7.44A7.44,7.44,0,0,1,574.43,46.64Zm-6.95-7.44a6.94,6.94,0,1,0,6.95-6.95A6.94,6.94,0,0,0,567.49,39.2Zm4.26-3.79a18.69,18.69,0,0,1,2.39-.17c2.7,0,3.26,1.19,3.26,2.16a2,2,0,0,1-1.83,2v0a1.89,1.89,0,0,1,1.39,1.41,10.48,10.48,0,0,0,.79,2.34h-1.1a10.46,10.46,0,0,1-.61-2,1.69,1.69,0,0,0-1.75-1.51h-1.55v3.46h-1Zm1,3.56h1.66c1.31,0,2-.59,2-1.46s-.81-1.5-2.23-1.5a6.46,6.46,0,0,0-1.44.11Z" fill="#a6a8ab" stroke="#a6a8ab" stroke-miterlimit="10" stroke-width=".64"/>
</svg>